<svg xmlns="http://www.w3.org/2000/svg" viewBox="0 0 1100 610" font-family="Microsoft JhengHei, sans-serif"><rect width="1100" height="610" rx="24" fill="#121923"/><rect x="24" y="24" width="1052" height="50" rx="10" fill="#202b3c"/><text x="44" y="56" fill="#eff6ff" font-size="19">個性化工作區</text><rect x="946" y="34" width="106" height="30" rx="7" fill="#8bdac8"/><text x="999" y="55" text-anchor="middle" fill="#102727" font-size="15">釋出</text><rect x="24" y="90" width="190" height="444" rx="12" fill="#192330"/><rect x="230" y="90" width="478" height="444" rx="12" fill="#192330"/><rect x="724" y="90" width="352" height="444" rx="12" fill="#192330"/>
<text x="42" y="125" fill="#91a5bb" font-size="14">01  選擇分類</text><text x="44" y="174" fill="#d7e4f2" font-size="16">主題與顏色</text><rect x="36" y="199" width="166" height="42" rx="8" fill="#344d6f"/><text x="49" y="225" fill="#f0f6ff" font-size="16">遊戲分類</text><text x="44" y="278" fill="#b1c1d2" font-size="16">遊戲排列</text><text x="44" y="330" fill="#b1c1d2" font-size="16">底部導航</text><text x="248" y="125" fill="#91a5bb" font-size="14">02  主樣式看佈局</text>
<rect x="248" y="145" width="211" height="166" rx="10" fill="#243447" stroke="#8bdac8" stroke-width="2"/><rect x="260" y="159" width="187" height="48" rx="6" fill="#45607c"/><rect x="260" y="218" width="55" height="46" rx="6" fill="#34495f"/><rect x="322" y="218" width="55" height="46" rx="6" fill="#34495f"/><rect x="384" y="218" width="55" height="46" rx="6" fill="#34495f"/><text x="264" y="292" fill="#eaf1fa" font-size="15">新設計</text><rect x="477" y="145" width="211" height="166" rx="10" fill="#243447" stroke="#405065" stroke-width="2"/><rect x="489" y="159" width="187" height="48" rx="6" fill="#45607c"/><rect x="489" y="218" width="55" height="46" rx="6" fill="#34495f"/><rect x="551" y="218" width="55" height="46" rx="6" fill="#34495f"/><rect x="613" y="218" width="55" height="46" rx="6" fill="#34495f"/><text x="493" y="292" fill="#eaf1fa" font-size="15">樣式1（現行）</text><text x="248" y="350" fill="#91a5bb" font-size="14">03  細部選項調功能</text><text x="248" y="386" fill="#d7e4f2" font-size="15">分類按鈕</text><rect x="350" y="364" width="128" height="34" rx="7" fill="#345777"/><text x="365" y="387" fill="#cde8ff" font-size="14">圖示＋名稱</text><rect x="488" y="364" width="90" height="34" rx="7" fill="#273749"/><text x="504" y="387" fill="#b6c7da" font-size="14">僅名稱</text><text x="248" y="441" fill="#d7e4f2" font-size="15">資金快捷區</text><rect x="632" y="422" width="44" height="22" rx="11" fill="#8bdac8"/><circle cx="665" cy="433" r="8" fill="#fff"/><text x="744" y="125" fill="#91a5bb" font-size="14">04  預覽不改本站預設</text><rect x="799" y="148" width="200" height="310" rx="22" fill="#0f171f" stroke="#61758d" stroke-width="2"/><rect x="814" y="181" width="170" height="74" rx="9" fill="#426a69"/><text x="828" y="226" fill="#d7fff4" font-size="18">玩家畫面</text><rect x="814" y="271" width="80" height="40" rx="6" fill="#243c45"/><rect x="902" y="271" width="80" height="40" rx="6" fill="#243c45"/><rect x="814" y="319" width="80" height="40" rx="6" fill="#243c45"/><rect x="902" y="319" width="80" height="40" rx="6" fill="#243c45"/><rect x="814" y="367" width="80" height="40" rx="6" fill="#243c45"/><rect x="902" y="367" width="80" height="40" rx="6" fill="#243c45"/><text x="824" y="496" fill="#b5c8db" font-size="14">寬度 390 px ▾</text><text x="40" y="574" fill="#8bdac8" font-size="16">選外觀 → 調細節 → 切換情境檢查 → 核對並發布</text><text x="1060" y="575" text-anchor="end" fill="#8296ad" font-size="12">操作結構示意 · 非實際截圖</text></svg>